<svg width="1043" height="404" viewBox="0 0 1043 404" fill="none" xmlns="http://www.w3.org/2000/svg">
<path d="M227.5 317.6C214.6 304.4 193.4 304.2 180.2 317.1L114.5 381.5C110.1 385.8 110.2 391.4 111.7 395.1C113.2 398.8 117 402.8 123.2 402.9L238.7 403.3C247.6 403.3 255 396.1 255.1 387.2C255.1 386.7 255.1 386.2 255.1 385.8C255.3 360.4 245.2 335.7 227.5 317.6Z" fill="#9597A7"/>
<path d="M137.9 301.9C138.1 283.5 123.2 268.3 104.8 268.1L12.9002 267.2C6.70023 267.1 2.90023 271.1 1.30023 274.8C-0.299772 278.5 -0.399773 284.1 3.90023 288.4L85.3002 370.3C91.6002 376.6 101.9 376.7 108.3 370.5C108.6 370.2 109 369.8 109.3 369.5C127.3 351.9 137.7 327.2 137.9 301.9Z" fill="#9597A7"/>
<path d="M85.7 227.5C98.9 214.6 99.1 193.4 86.2 180.2L21.8 114.5C17.5 110.1 11.9 110.2 8.2 111.7C4.5 113.2 0.5 117 0.4 123.2L0 238.8C0 247.7 7.2 255.1 16.1 255.2C16.6 255.2 17.1 255.2 17.5 255.2C42.8 255.3 67.6 245.2 85.7 227.5Z" fill="#9597A7"/>
<path d="M175.7 85.7C188.6 98.9 209.8 99.1 223 86.2L288.7 21.8C293.1 17.5 293 11.9 291.5 8.2C290 4.5 286.2 0.500001 280 0.400001L164.5 0C155.6 0 148.2 7.2 148.1 16.1C148.1 16.6 148.1 17.1 148.1 17.5C148 42.9 158 67.6 175.7 85.7Z" fill="#9597A7"/>
<path d="M265.3 101.4C265.1 119.8 280 135 298.4 135.2L390.3 136.1C396.5 136.2 400.3 132.2 401.9 128.5C403.5 124.8 403.6 119.2 399.3 114.9L317.9 32.8C311.6 26.5 301.3 26.4 294.9 32.6C294.6 32.9 294.2 33.3 293.9 33.6C276 51.4 265.6 76 265.3 101.4Z" fill="#9597A7"/>
<path d="M317.6 175.8C304.4 188.7 304.2 209.9 317.1 223.1L381.5 288.8C385.8 293.2 391.4 293.1 395.1 291.6C398.8 290.1 402.8 286.3 402.9 280.1L403.3 164.6C403.3 155.7 396.1 148.3 387.2 148.2C386.7 148.2 386.2 148.2 385.8 148.2C360.4 148 335.6 158 317.6 175.8Z" fill="#9597A7"/>
<path d="M301.9 265.3C283.5 265.1 268.3 280 268.1 298.4L267.2 390.3C267.1 396.5 271.1 400.3 274.8 401.9C278.5 403.5 284.1 403.6 288.4 399.3L370.3 317.9C376.6 311.6 376.7 301.3 370.5 294.9C370.2 294.6 369.8 294.2 369.5 293.9C351.8 276 327.2 265.6 301.9 265.3Z" fill="#9597A7"/>
<path d="M124.4 57.9V51C124.4 34.2 111.1 20.2 94.3002 20C77.2002 19.7 63.2002 33.6 63.2002 50.6V58C53.3002 61.8 46.2002 71.4 46.2002 82.7V100C46.2002 114.6 58.0002 126.4 72.6002 126.4H81.5002C83.1002 126.4 84.5002 125.2 84.9002 123.6L88.8002 97.1C88.9002 96.4 88.6002 95.7 88.0002 95.3C84.3002 93.1 82.0002 89 82.5002 84.3C83.1002 79.1 87.2002 75 92.4002 74.4C99.2002 73.6 105.1 79 105.1 85.6C105.1 89.7 102.9 93.3 99.6002 95.3C99.0002 95.7 98.7002 96.4 98.8002 97.1L102.7 123.6C103 125.2 104.4 126.4 106.1 126.4H115C129.6 126.4 141.4 114.6 141.4 100V82.6C141.3 71.3 134.3 61.7 124.4 57.9ZM117.6 56.3C116.7 56.2 115.8 56.2 115 56.2H72.7002C71.8002 56.2 70.9002 56.2 70.1002 56.3V50.5C70.1002 37.2 81.0002 26.5 94.3002 26.7C107.3 26.9 117.6 37.9 117.6 50.9V56.3Z" fill="#9597A7"/>
<path d="M583.2 100.3C583.2 118.7 569.6 131.6 550.7 131.6C532.8 131.6 518 120 518 97V85.8C518 63.7 528.7 47.7 548.5 43.9L577.8 40.3V52.1001L551.3 55.3C539.3 57.7 532 65.4 531.3 81.3C535.9 72.2 544.7 69.8 552.9 69.8C570.4 69.7 583.2 82.1 583.2 100.3ZM569.8 100.2C569.8 89.2001 561.9 81.2001 550.8 81.2001C539.6 81.2001 531.7 89.1001 531.7 100.2C531.7 111.5 539.6 119.3 550.8 119.3C561.8 119.3 569.8 111.5 569.8 100.2Z" fill="#9597A7"/>
<path d="M654.6 103.9C654.6 101.9 654.6 100.1 654.5 98.2C653 78 640.2 66.9 622.8 66.9C604.3 66.9 591 80.9 591 99.4C591 118.8 604.9 131.7 623.8 131.7C637.8 131.7 648.9 123.5 652.7 113H639.4C636.3 117.1 631.2 120.3 623.9 120.3C613.6 120.3 605.6 113.6 604.8 103.9H654.6ZM604.8 93.5C605.5 84.6 613 78.1 622.8 78.1C633 78.1 640.1 84.7 640.5 93.5H604.8Z" fill="#9597A7"/>
<path d="M659.2 118.7C664 118.5 669 115.8 669 105.9V68.3H717.9V130.6H704.3V80.6001H682.3V106.2C682.3 123.5 672.1 131.3 659 131L659.2 118.7Z" fill="#9597A7"/>
<path d="M755.1 97.3L784.9 68.3H769.1L752.6 84.3L743.3 93.3V68.3H743.1H730.5H729.7V130.6H730.5H743.1H743.3V101.3L752.5 111.6L769.2 130.6H785L755.1 97.3Z" fill="#9597A7"/>
<path d="M839.2 68.2L837.5 77.5C832.2 71 823 67 814.7 67C814.6 67 814.5 67 814.4 67C814.3 67 814.1 67 814 67C805 67 797.7 70.3 792.4 75.6C792.1 75.9 791.9 76.1 791.6 76.4C791.5 76.6 791.3 76.7 791.2 76.9C786.2 82.6 783.3 90.4 783.3 99.3V99.4V99.5C783.3 108.4 786.1 116.2 791.2 121.9C791.3 122.1 791.5 122.2 791.6 122.4C791.8 122.7 792.1 122.9 792.4 123.2C797.6 128.6 805 131.8 814 131.8C814.1 131.8 814.3 131.8 814.4 131.8C814.5 131.8 814.6 131.8 814.7 131.8C823 131.8 832.2 127.9 837.5 121.3V130.6H851.3V130.5V68.3V68.2H839.2ZM817.5 119.3C805.7 119.3 797.3 111 797.3 99.4C797.3 87.8 805.7 79.5 817.5 79.5C829.1 79.5 837.4 88.1 837.4 99.4C837.4 110.7 829.1 119.3 817.5 119.3Z" fill="#9597A7"/>
<path d="M863.101 68.2V68.3V158.5V158.6H876.901V121.3C882.201 127.8 891.401 131.8 899.701 131.8C899.801 131.8 899.901 131.8 900.001 131.8C900.101 131.8 900.301 131.8 900.401 131.8C909.401 131.8 916.701 128.5 922.001 123.2C922.301 122.9 922.501 122.7 922.801 122.4C922.901 122.2 923.101 122.1 923.201 121.9C928.201 116.2 931.101 108.4 931.101 99.5V99.4V99.3C931.101 90.4 928.301 82.6 923.201 76.9C923.101 76.7 922.901 76.6 922.801 76.4C922.601 76.1 922.301 75.9 922.001 75.6C916.801 70.2 909.401 67 900.401 67C900.301 67 900.101 67 900.001 67C899.901 67 899.801 67 899.701 67C891.401 67 882.201 70.9 876.901 77.5L875.201 68.2H863.101ZM877.001 99.4C877.001 88.1 885.301 79.5 896.901 79.5C908.701 79.5 917.101 87.8 917.101 99.4C917.101 111 908.701 119.3 896.901 119.3C885.301 119.3 877.001 110.7 877.001 99.4Z" fill="#9597A7"/>
<path d="M1033.8 91.7V130.6H1020.1V95.2C1020.1 83.9 1014.3 78.9 1006.6 78.9C998.7 78.9 992.7 84.2 992.7 95.2V130.6H979V95.2C979 83.9 973.1 78.9 965.7 78.9C957.6 78.9 951.6 84.2 951.6 95.2V130.6H937.8V68.3H949.9L951.5 77.3C955.1 70.9 961.1 67 970.3 67C978.7 67 985.6 70.5 989.3 77.3C993.4 70.9 1000.2 67 1010.3 67C1024.3 67 1033.8 76.4 1033.8 91.7Z" fill="#9597A7"/>
<path d="M565.2 177.9H576.2V239H564.1V198.5L530.9 239H519.7V177.9H531.8V219.1L565.2 177.9Z" fill="#9597A7"/>
<path d="M630.7 177.9H642.8V239H630.7V217H600V239H587.9V177.9H600V204.2H630.7V177.9Z" fill="#9597A7"/>
<path d="M1009.5 238.9V188.6H989.9V177.8H1042.2V188.6H1022.8V238.9H1009.5Z" fill="#9597A7"/>
<path d="M769.4 212.9C769.4 211 769.4 209.1 769.3 207.4C767.8 187.6 755.3 176.8 738.3 176.8C720.2 176.8 707.2 190.5 707.2 208.6C707.2 227.6 720.8 240.2 739.3 240.2C753 240.2 763.8 232.2 767.6 221.9H754.6C751.6 226 746.5 229 739.4 229C729.3 229 721.5 222.4 720.7 212.9H769.4ZM720.7 202.7C721.4 194 728.8 187.7 738.4 187.7C748.4 187.7 755.4 194.2 755.7 202.7H720.7Z" fill="#9597A7"/>
<path d="M986 212.9C986 211 986 209.1 985.9 207.4C984.4 187.6 971.9 176.8 954.9 176.8C936.8 176.8 923.8 190.5 923.8 208.6C923.8 227.6 937.4 240.2 955.9 240.2C969.6 240.2 980.4 232.2 984.2 221.9H971.2C968.2 226 963.1 229 956 229C945.9 229 938.1 222.4 937.3 212.9H986ZM937.2 202.7C937.9 194 945.3 187.7 954.9 187.7C964.9 187.7 971.9 194.2 972.2 202.7H937.2Z" fill="#9597A7"/>
<path d="M901.4 177.9H913.5V239H901.4V217H870.7V239H858.6V177.9H870.7V204.2H901.4V177.9Z" fill="#9597A7"/>
<path d="M671.4 238.9V188.6H651.8V177.8H704.1V188.6H684.7V238.9H671.4Z" fill="#9597A7"/>
<path d="M781 177.2V177.3V265.8V265.9H794.5V229.3C799.7 235.7 808.8 239.6 816.9 239.6C817 239.6 817.1 239.6 817.2 239.6C817.3 239.6 817.5 239.6 817.6 239.6C826.4 239.6 833.6 236.4 838.8 231.1C839 230.9 839.3 230.6 839.5 230.4C839.6 230.2 839.8 230.1 839.9 229.9C844.9 224.3 847.6 216.7 847.6 207.9V207.8V207.7C847.6 199 844.8 191.3 839.9 185.7C839.8 185.5 839.6 185.4 839.5 185.2C839.3 184.9 839 184.7 838.8 184.5C833.7 179.2 826.5 176 817.6 176C817.5 176 817.3 176 817.2 176C817.1 176 817 176 816.9 176C808.8 176 799.8 179.8 794.5 186.3L792.9 177.2H781ZM794.7 207.8C794.7 196.7 802.8 188.3 814.3 188.3C825.8 188.3 834.1 196.4 834.1 207.8C834.1 219.2 825.9 227.3 814.3 227.3C802.8 227.4 794.7 218.9 794.7 207.8Z" fill="#9597A7"/>
<path d="M575.9 287.3V348.4H562.2V298.1H533.5V348.4H519.8V287.3H575.9Z" fill="#9597A7"/>
<path d="M908.9 306.3C923.3 306.3 933 314.3 933 327.4C933 340.6 923.2 348.5 908.9 348.5H883.8V287.4H895.9V306.3H908.9ZM907.3 337C914.7 337 920.9 333.7 920.9 327.4C920.9 321 914.8 317.6 907.3 317.6H895.8V337H907.3Z" fill="#9597A7"/>
<path d="M640.7 287.6L639.1 296.6C633.9 290.2 624.9 286.4 616.8 286.4C616.7 286.4 616.6 286.4 616.5 286.4C616.4 286.4 616.2 286.4 616.1 286.4C607.3 286.4 600.2 289.6 595 294.8C594.8 295 594.5 295.3 594.3 295.5C594.2 295.7 594 295.8 593.9 296C589 301.6 586.2 309.2 586.2 317.9V318V318.1C586.2 326.8 589 334.4 593.9 340C594 340.2 594.2 340.3 594.3 340.5C594.5 340.8 594.8 341 595 341.2C600.1 346.4 607.3 349.6 616.1 349.6C616.2 349.6 616.4 349.6 616.5 349.6C616.6 349.6 616.7 349.6 616.8 349.6C624.9 349.6 633.9 345.8 639.1 339.4V348.4H652.6V348.3V287.6V287.5H640.7V287.6ZM619.5 337.5C608 337.5 599.8 329.4 599.8 318C599.8 306.6 608 298.5 619.5 298.5C630.9 298.5 639 306.9 639 318C639 329.1 630.8 337.5 619.5 337.5Z" fill="#9597A7"/>
<path d="M666.3 286.7V286.8V375.3V375.4H679.8V338.8C685 345.2 694.1 349.1 702.2 349.1C702.3 349.1 702.4 349.1 702.5 349.1C702.6 349.1 702.8 349.1 702.9 349.1C711.7 349.1 718.9 345.9 724.1 340.6C724.3 340.4 724.6 340.1 724.8 339.9C724.9 339.7 725.1 339.6 725.2 339.4C730.2 333.8 732.9 326.2 732.9 317.4V317.3V317.2C732.9 308.5 730.1 300.8 725.2 295.2C725.1 295 724.9 294.9 724.8 294.7C724.6 294.4 724.3 294.2 724.1 294C719 288.7 711.8 285.5 702.9 285.5C702.8 285.5 702.6 285.5 702.5 285.5C702.4 285.5 702.3 285.5 702.2 285.5C694.1 285.5 685.1 289.3 679.8 295.8L678.2 286.7H666.3ZM679.9 317.3C679.9 306.2 688 297.8 699.5 297.8C711 297.8 719.3 305.9 719.3 317.3C719.3 328.7 711.1 336.8 699.5 336.8C688.1 336.9 679.9 328.4 679.9 317.3Z" fill="#9597A7"/>
<path d="M813.7 337.2C818.5 337 823.5 334.3 823.5 324.5V287.2H872V349H858.5V299.4H836.7V324.8C836.7 341.9 826.6 349.7 813.6 349.4L813.7 337.2Z" fill="#9597A7"/>
<path d="M773.8 286C755 286 741.1 299.5 741.1 317.8C741.1 336.1 755 349.6 773.8 349.6C792.7 349.6 806.5 336.2 806.5 317.8C806.5 299.6 792.7 286 773.8 286ZM773.8 337.4C762.7 337.4 754.5 329.1 754.5 317.8C754.5 306.6 762.7 298.2 773.8 298.2C785 298.2 793.1 306.5 793.1 317.8C793.1 329.1 785 337.4 773.8 337.4Z" fill="#9597A7"/>
</svg>
