<svg xmlns="http://www.w3.org/2000/svg" width="75" height="43" viewBox="0 0 75 43">
  <g id="Group_645" data-name="Group 645" transform="translate(-0.5)">
    <g id="verifiedByVisa" transform="translate(9.5 7.167)">
      <g id="Group_45" data-name="Group 45" transform="translate(7.177 14.114)">
        <path id="Path_80" data-name="Path 80" d="M136.024,85.957h-3.2c-.121-.549-.257-1.088-.352-1.637-.049-.284-.157-.39-.451-.387q-1.905.02-3.809,0a.419.419,0,0,0-.471.332c-.192.569-.409,1.126-.614,1.693h-3.619c.064-.169.113-.307.171-.445,1.656-3.948,3.322-7.892,4.962-11.849a1.842,1.842,0,0,1,1.828-1.228c.8-.015,1.611.008,2.415-.009.278-.006.359.1.409.358q1.186,5.769,2.394,11.533C135.8,84.846,135.905,85.375,136.024,85.957Zm-5.229-9.7-.114.017-1.8,4.912h2.928Z" transform="translate(-92.69 -72.221)" fill="#9597a6"/>
        <path id="Path_81" data-name="Path 81" d="M61.4,72.492c-.511,1.217-.985,2.339-1.456,3.462q-2.019,4.81-4.029,9.628a.6.6,0,0,1-.675.453q-1.392-.046-2.787,0c-.374.012-.5-.136-.584-.468-.866-3.4-1.76-6.794-2.606-10.2a1.938,1.938,0,0,0-1.308-1.535c-.878-.295-1.762-.571-2.638-.872-.128-.044-.225-.179-.337-.272.136-.064.271-.185.409-.186,1.8-.012,3.593-.017,5.389,0a1.637,1.637,0,0,1,1.82,1.432c0,.033.007.065.009.1.466,2.4.909,4.8,1.363,7.2.02.1.053.2.109.409.117-.252.2-.409.261-.565,1.068-2.7,2.143-5.4,3.2-8.114a.627.627,0,0,1,.708-.475C59.263,72.512,60.284,72.492,61.4,72.492Z" transform="translate(-44.984 -72.256)" fill="#9597a6"/>
        <path id="Path_82" data-name="Path 82" d="M99.112,82.35c.9.238,1.734.517,2.592.671a3.827,3.827,0,0,0,2.324-.2,1.1,1.1,0,0,0,.23-2.038c-.632-.437-1.341-.763-2.011-1.147a7.231,7.231,0,0,1-.738-.479,3.517,3.517,0,0,1-.409-5.526,5.937,5.937,0,0,1,3.648-1.648,8.914,8.914,0,0,1,4.386.537l-.593,2.814a6.8,6.8,0,0,0-3.571-.56,1.777,1.777,0,0,0-.272.051c-.5.16-.989.349-1.094.942s.333.9.758,1.159c.688.415,1.411.772,2.1,1.19a3.454,3.454,0,0,1,1.884,4.046,4.146,4.146,0,0,1-2.566,3.026,9.372,9.372,0,0,1-5.779.423,7.273,7.273,0,0,1-1.2-.343.473.473,0,0,1-.237-.387C98.729,84.025,98.931,83.169,99.112,82.35Z" transform="translate(-77.534 -71.905)" fill="#9597a6"/>
        <path id="Path_83" data-name="Path 83" d="M86.841,86.05H83.352l2.892-13.488H89.7Z" transform="translate(-68.294 -72.304)" fill="#9597a6"/>
      </g>
      <path id="Path_84" data-name="Path 84" d="M139.291,45.132c-.018.252-.042.566-.066.907h-.976v-9.61h1.161v3.984c.075,0,.117.017.128,0a2.6,2.6,0,0,1,2.929-.979,2.669,2.669,0,0,1,1.944,2.317,4.321,4.321,0,0,1-.429,3.016,2.743,2.743,0,0,1-3.348,1.282A6.987,6.987,0,0,1,139.291,45.132Zm.122-2.3h.031v.418A1.882,1.882,0,0,0,143.1,44a3.349,3.349,0,0,0,.023-2.49,1.842,1.842,0,0,0-1.8-1.273,1.9,1.9,0,0,0-1.791,1.487A8.278,8.278,0,0,0,139.413,42.833Z" transform="translate(-94.468 -36.239)" fill="#9597a6"/>
      <path id="Path_85" data-name="Path 85" d="M116.022,40.205V36.316c.278,0,.519.013.757,0,.307-.023.4.119.393.409-.013.881-.009,1.763,0,2.645q.021,3.2.047,6.4c0,.068-.01.137-.02.2h-.969c-.039-.343-.079-.684-.129-1.115a2.534,2.534,0,0,1-1.975,1.241,2.671,2.671,0,0,1-2.825-1.8,4.408,4.408,0,0,1-.047-3,2.775,2.775,0,0,1,4.768-1.1Zm.024,2.421h-.031c0-.232.015-.465,0-.7a1.889,1.889,0,0,0-1.521-1.76,1.823,1.823,0,0,0-2.019,1.14,3.43,3.43,0,0,0-.03,2.752,1.772,1.772,0,0,0,1.888,1.126,1.851,1.851,0,0,0,1.616-1.5c.064-.347.066-.7.1-1.057Z" transform="translate(-77.922 -36.169)" fill="#9597a6"/>
      <path id="Path_86" data-name="Path 86" d="M30.96,46.7a.729.729,0,0,1-.119.034c-1.166.076-1.164.076-1.521-1.024q-1.235-3.787-2.469-7.578c-.057-.172-.1-.347-.155-.526a1.293,1.293,0,0,1,.18-.043c1.024-.066,1.024-.069,1.325.9q1.037,3.39,2.06,6.783a2.686,2.686,0,0,0,.12.257c.1-.374.173-.672.269-.962.741-2.228,1.49-4.453,2.228-6.682a.37.37,0,0,1,.424-.308h0c.291.019.584,0,.933,0Z" transform="translate(-26.697 -36.91)" fill="#9597a6"/>
      <path id="Path_87" data-name="Path 87" d="M100.633,47.374H96.052a2.006,2.006,0,0,0,1.694,2.276c.049.007.1.013.148.016a19.83,19.83,0,0,0,2.237-.143,1.531,1.531,0,0,1,.1.44.411.411,0,0,1-.2.33,4.9,4.9,0,0,1-3.275.062,3.124,3.124,0,0,1-1.842-3.5,5.2,5.2,0,0,1,.558-1.747,2.819,2.819,0,0,1,3.151-1.33,2.607,2.607,0,0,1,1.995,2.447A10.546,10.546,0,0,1,100.633,47.374Zm-4.6-.865H99.5a1.669,1.669,0,0,0-1.363-1.927q-.068-.012-.137-.018C96.989,44.467,96.168,45.257,96.035,46.509Z" transform="translate(-68.107 -40.65)" fill="#9597a6"/>
      <path id="Path_88" data-name="Path 88" d="M50.51,47.373H45.9a2,2,0,0,0,1.667,2.293c.044.007.087.013.131.016a5.48,5.48,0,0,0,1.111-.011,11.358,11.358,0,0,0,1.126-.244l.175.732c-1.755,1.039-4.349.393-5.064-1.276a4.01,4.01,0,0,1,.307-3.865A2.858,2.858,0,0,1,48.481,43.8a2.6,2.6,0,0,1,1.966,2.372C50.5,46.544,50.49,46.926,50.51,47.373Zm-1.191-.852a1.631,1.631,0,0,0-1.507-1.944,1.883,1.883,0,0,0-1.929,1.836c0,.036,0,.073,0,.109Z" transform="translate(-37.631 -40.659)" fill="#9597a6"/>
      <path id="Path_89" data-name="Path 89" d="M157.487,49.458,158.992,45c.273-.81.272-.81,1.145-.794.092,0,.183.01.3.018a.584.584,0,0,1,0,.181c-.849,2.174-1.688,4.353-2.559,6.516a4.953,4.953,0,0,1-1.494,2.149,14.921,14.921,0,0,1-1.314.819l-.352-1.062a3.7,3.7,0,0,0,1.965-1.786.952.952,0,0,0,.044-.876c-.739-1.8-1.46-3.612-2.185-5.424-.062-.155-.117-.313-.2-.537.334,0,.622.018.908-.005s.4.094.493.353c.53,1.517,1.079,3.028,1.62,4.542Z" transform="translate(-104.242 -40.953)" fill="#9597a6"/>
      <path id="Path_90" data-name="Path 90" d="M81.111,36.949c-1.5-.3-2.206.5-1.945,2.222h1.5v.876H79.116v5.692h-1.19V40.11l-.885-.064v-.786c.006-.005.028-.04.052-.043.774-.092.774-.091.85-.9a2.306,2.306,0,0,1,2.581-2.354C81.319,35.994,81.41,36.139,81.111,36.949Z" transform="translate(-57.282 -35.944)" fill="#9597a6"/>
      <path id="Path_91" data-name="Path 91" d="M63.153,50.494H62.037V44.017h.913l.1,1.271a2.093,2.093,0,0,1,2.172-1.447v1.051c-.113.01-.218.022-.321.027a1.7,1.7,0,0,0-1.674,1.666c-.085.921-.053,1.854-.07,2.782C63.148,49.726,63.153,50.078,63.153,50.494Z" transform="translate(-48.167 -40.737)" fill="#9597a6"/>
      <path id="Path_92" data-name="Path 92" d="M89.393,44.26h1.1v6.526h-1.1Z" transform="translate(-64.787 -40.996)" fill="#9597a6"/>
      <path id="Path_93" data-name="Path 93" d="M73.346,50.836h-1.1V44.312h1.1Z" transform="translate(-54.372 -41.028)" fill="#9597a6"/>
      <path id="Path_94" data-name="Path 94" d="M73.223,38.266a.672.672,0,0,1-.646.7.731.731,0,0,1-.106,0,.709.709,0,0,1-.706-.709.728.728,0,0,1,.725-.73h.019a.694.694,0,0,1,.715.674A.61.61,0,0,1,73.223,38.266Z" transform="translate(-54.078 -36.902)" fill="#9597a6"/>
      <path id="Path_95" data-name="Path 95" d="M90.435,38.273a.686.686,0,0,1-.678.693.7.7,0,0,1-.076,0,.67.67,0,0,1-.7-.635c0-.018,0-.037,0-.055a.694.694,0,0,1,.748-.747.706.706,0,0,1,.71.7C90.437,38.243,90.436,38.258,90.435,38.273Z" transform="translate(-64.533 -36.904)" fill="#9597a6"/>
    </g>
    <rect id="Rectangle_234" data-name="Rectangle 234" width="75" height="43" transform="translate(0.5)" fill="none"/>
  </g>
</svg>
