<?xml version="1.0" encoding="UTF-8" standalone="no" ?>
<!DOCTYPE svg PUBLIC "-//W3C//DTD SVG 1.1//EN" "http://www.w3.org/Graphics/SVG/1.1/DTD/svg11.dtd">
<svg xmlns="http://www.w3.org/2000/svg" xmlns:xlink="http://www.w3.org/1999/xlink" version="1.1" x="0px" y="0px"
	 width="170px" height="110px" viewBox="0 0 170 110" xml:space="preserve">
<desc>Created with Fabric.js 3.6.3</desc>
<defs>
</defs>
<g transform="matrix(1 0 0 1 83.81 55.27)"  >
<g style=""   >
		<g transform="matrix(1 0 0 1 0 0)"  >
<path style="stroke: rgb(149,151,166); stroke-width: 4; stroke-dasharray: none; stroke-linecap: butt; stroke-dashoffset: 0; stroke-linejoin: miter; stroke-miterlimit: 4; fill: rgb(149,151,166); fill-opacity: 0; fill-rule: nonzero; opacity: 1;"  transform=" translate(-82.76, -52.98)" d="M 150.69807 0 H 14.82318 c -0.5659 0 -1.1328 0 -1.69769 0.0033 c -0.47751 0.0034 -0.95391 0.0087 -1.43031 0.0217 c -1.039 0.0281 -2.0869 0.0894 -3.1129 0.2738 c -1.0424 0.1876 -2.0124 0.4936 -2.9587 0.9754 c -0.9303 0.4731 -1.782 1.0919 -2.52009 1.8303 c -0.73841 0.7384 -1.35721 1.5887 -1.83021 2.52 c -0.4819 0.9463 -0.7881 1.9166 -0.9744 2.9598 c -0.18539 1.0263 -0.2471 2.074 -0.2751 3.1119 c -0.0128 0.4764 -0.01829 0.9528 -0.0214 1.4291 c -0.0033 0.5661 -0.0022 1.1318 -0.0022 1.6989 V 91.142 c 0 0.5671 -0.0011 1.13181 0.0022 1.69901 c 0.00311 0.4763 0.0086 0.9527 0.0214 1.4291 c 0.028 1.03699 0.08971 2.08469 0.2751 3.11069 c 0.1863 1.0436 0.4925 2.0135 0.9744 2.9599 c 0.473 0.9313 1.0918 1.7827 1.83021 2.52 c 0.73809 0.7396 1.58979 1.3583 2.52009 1.8302 c 0.9463 0.4831 1.9163 0.7892 2.9587 0.9767 c 1.026 0.1832 2.0739 0.2456 3.1129 0.2737 c 0.4764 0.0108 0.9528 0.0172 1.43031 0.0194 c 0.56489 0.0044 1.13179 0.0044 1.69769 0.0044 h 135.87489 c 0.5649 0 1.13181 0 1.69659 -0.0044 c 0.47641 -0.0022 0.95282 -0.0086 1.4314 -0.0194 c 1.0368 -0.0281 2.0845 -0.0905 3.11301 -0.2737 c 1.041 -0.1875 2.0112 -0.4936 2.9576 -0.9767 c 0.9313 -0.4719 1.7805 -1.0906 2.52011 -1.8302 c 0.7372 -0.7373 1.35599 -1.5887 1.8302 -2.52 c 0.48299 -0.9464 0.78889 -1.9163 0.97429 -2.9599 c 0.1855 -1.026 0.2457 -2.0737 0.2738 -3.11069 c 0.013 -0.4764 0.01941 -0.9528 0.02161 -1.4291 c 0.00439 -0.5672 0.00439 -1.1319 0.00439 -1.69901 V 14.8242 c 0 -0.5671 0 -1.1328 -0.00439 -1.6989 c -0.0022 -0.4763 -0.00861 -0.9527 -0.02161 -1.4291 c -0.02811 -1.0379 -0.0883 -2.0856 -0.2738 -3.1119 c -0.18539 -1.0432 -0.4913 -2.0135 -0.97429 -2.9598 c -0.47421 -0.9313 -1.093 -1.7816 -1.8302 -2.52 c -0.73961 -0.7384 -1.58881 -1.3572 -2.52011 -1.8303 c -0.9464 -0.4818 -1.9166 -0.7878 -2.9576 -0.9754 c -1.0285 -0.1844 -2.0762 -0.2457 -3.11301 -0.2738 c -0.47858 -0.013 -0.95499 -0.0183 -1.4314 -0.0217 C 151.82988 0 151.26297 0 150.69807 0 L 150.69807 0 z" stroke-linecap="round" />
</g>
		<g transform="matrix(1 0 0 1 -41.08 -20.68)"  >
<path style="stroke: none; stroke-width: 1; stroke-dasharray: none; stroke-linecap: butt; stroke-dashoffset: 0; stroke-linejoin: miter; stroke-miterlimit: 4; fill: rgb(149,151,166); fill-rule: nonzero; opacity: 1;"  transform=" translate(-43.18, -33.8)" d="M 45.1862 35.64053 c 1.41724 -1.77266 2.37897 -4.15282 2.12532 -6.58506 c -2.07464 0.10316 -4.60634 1.36871 -6.07207 3.14276 c -1.31607 1.5192 -2.4809 3.99902 -2.17723 6.3293 C 41.39111 38.72954 43.71785 37.36345 45.1862 35.64053" stroke-linecap="round" />
</g>
		<g transform="matrix(1 0 0 1 -45.12 0.08)"  >
<path style="stroke: none; stroke-width: 1; stroke-dasharray: none; stroke-linecap: butt; stroke-dashoffset: 0; stroke-linejoin: miter; stroke-miterlimit: 4; fill: rgb(149,151,166); fill-rule: nonzero; opacity: 1;"  transform=" translate(-39.15, -54.56)" d="M 47.28506 38.98252 c -3.38211 -0.20146 -6.25773 1.91951 -7.87286 1.91951 c -1.61602 0 -4.08931 -1.81799 -6.76438 -1.76899 c -3.48177 0.05114 -6.71245 2.01976 -8.4793 5.15079 c -3.63411 6.2636 -0.95904 15.55471 2.57494 20.65606 c 1.71618 2.5238 3.78447 5.30269 6.50976 5.20287 c 2.57494 -0.10104 3.58421 -1.66732 6.71416 -1.66732 c 3.12765 0 4.03679 1.66732 6.76252 1.61681 c 2.82665 -0.05054 4.59381 -2.52506 6.30997 -5.05132 c 1.96878 -2.877 2.77473 -5.65498 2.82542 -5.80748 c -0.0507 -0.05051 -5.45058 -2.12204 -5.50065 -8.33358 c -0.05098 -5.20101 4.23951 -7.6749 4.44144 -7.82832 C 52.3832 39.4881 48.5975 39.08404 47.28506 38.98252" stroke-linecap="round" />
</g>
		<g transform="matrix(1 0 0 1 -8.39 -3.6)"  >
<path style="stroke: none; stroke-width: 1; stroke-dasharray: none; stroke-linecap: butt; stroke-dashoffset: 0; stroke-linejoin: miter; stroke-miterlimit: 4; fill: rgb(149,151,166); fill-rule: nonzero; opacity: 1;"  transform=" translate(-75.87, -50.89)" d="M 76.73385 31.94381 c 7.35096 0 12.4697 5.06708 12.4697 12.44437 c 0 7.40363 -5.22407 12.49704 -12.65403 12.49704 h -8.13892 v 12.94318 h -5.88037 v -37.8846 H 76.73385 z M 68.41059 51.9493 h 6.74732 c 5.11975 0 8.0336 -2.75636 8.0336 -7.53479 c 0 -4.77792 -2.91385 -7.50845 -8.00727 -7.50845 h -6.77365 V 51.9493 z" stroke-linecap="round" />
</g>
		<g transform="matrix(1 0 0 1 18.22 1.53)"  >
<path style="stroke: none; stroke-width: 1; stroke-dasharray: none; stroke-linecap: butt; stroke-dashoffset: 0; stroke-linejoin: miter; stroke-miterlimit: 4; fill: rgb(149,151,166); fill-rule: nonzero; opacity: 1;"  transform=" translate(-102.48, -56.01)" d="M 90.73997 61.97864 c 0 -4.8311 3.70182 -7.79761 10.26583 -8.16526 l 7.56061 -0.44614 v -2.12639 c 0 -3.07185 -2.07423 -4.90959 -5.53905 -4.90959 c -3.28251 0 -5.33041 1.57492 -5.82871 4.04313 h -5.35574 c 0.31499 -4.98859 4.56777 -8.66407 11.3941 -8.66407 c 6.69466 0 10.97377 3.54432 10.97377 9.08388 v 19.03421 h -5.43472 v -4.54194 h -0.13065 c -1.60125 3.07185 -5.09341 5.01441 -8.71623 5.01441 C 94.52078 70.30088 90.73997 66.94038 90.73997 61.97864 z M 108.56641 59.4846 v -2.17905 l -6.8 0.41981 c -3.38683 0.23649 -5.30306 1.73291 -5.30306 4.09579 c 0 2.41504 1.99523 3.99046 5.04075 3.99046 C 105.46823 65.81161 108.56641 63.08108 108.56641 59.4846 z" stroke-linecap="round" />
</g>
		<g transform="matrix(1 0 0 1 45.45 6.69)"  >
<path style="stroke: none; stroke-width: 1; stroke-dasharray: none; stroke-linecap: butt; stroke-dashoffset: 0; stroke-linejoin: miter; stroke-miterlimit: 4; fill: rgb(149,151,166); fill-rule: nonzero; opacity: 1;"  transform=" translate(-129.71, -61.16)" d="M 119.34167 79.9889 v -4.5946 c 0.4193 0.10483 1.36425 0.10483 1.83723 0.10483 c 2.6252 0 4.04313 -1.10245 4.90908 -3.9378 c 0 -0.05267 0.49931 -1.68025 0.49931 -1.70658 l -9.97616 -27.64562 h 6.14268 l 6.98432 22.47371 h 0.10432 l 6.98433 -22.47371 h 5.9857 l -10.34483 29.06304 c -2.36186 6.69517 -5.0924 8.84789 -10.81577 8.84789 C 121.17891 80.12006 119.76098 80.06739 119.34167 79.9889 z" stroke-linecap="round" />
</g>
</g>
</g>
</svg>