<svg id="Group_646" data-name="Group 646" xmlns="http://www.w3.org/2000/svg" width="75" height="43" viewBox="0 0 75 43">
  <g id="mcsecure" transform="translate(6 12.183)">
    <g id="Group_30" data-name="Group 30" transform="translate(0 0)">
      <path id="Path_13" data-name="Path 13" d="M35.555,248.442a4.523,4.523,0,0,0-1.029-.485,3.644,3.644,0,0,0-1.122-.172,2.9,2.9,0,0,0-.7.079,1.719,1.719,0,0,0-.542.23,1.124,1.124,0,0,0-.353.361.9.9,0,0,0-.126.474.739.739,0,0,0,.109.41.893.893,0,0,0,.315.287,2.014,2.014,0,0,0,.5.194,6.153,6.153,0,0,0,.667.132l.531.071a5.811,5.811,0,0,1,.9.2,2.754,2.754,0,0,1,.791.382,1.886,1.886,0,0,1,.558.618,1.809,1.809,0,0,1,.21.9,2.114,2.114,0,0,1-.246,1.034,2.284,2.284,0,0,1-.667.755,3.074,3.074,0,0,1-.976.465,4.259,4.259,0,0,1-1.175.158,5.1,5.1,0,0,1-.807-.066,5.588,5.588,0,0,1-.826-.193,5.029,5.029,0,0,1-.78-.32,3.317,3.317,0,0,1-.667-.452l.671-.981a2.486,2.486,0,0,0,.474.333,4.1,4.1,0,0,0,.594.271,4.17,4.17,0,0,0,.659.181,3.732,3.732,0,0,0,.675.063,3.062,3.062,0,0,0,.7-.077,1.917,1.917,0,0,0,.566-.224,1.2,1.2,0,0,0,.381-.362.838.838,0,0,0,.14-.473.742.742,0,0,0-.44-.685,3.942,3.942,0,0,0-1.283-.35l-.6-.082a4.7,4.7,0,0,1-.834-.2,2.422,2.422,0,0,1-.727-.385,1.853,1.853,0,0,1-.514-.624,1.948,1.948,0,0,1-.2-.916,2.133,2.133,0,0,1,.238-1.021,2.226,2.226,0,0,1,.648-.749,2.99,2.99,0,0,1,.96-.462,4.192,4.192,0,0,1,1.175-.159,4.834,4.834,0,0,1,1.512.221,5.242,5.242,0,0,1,1.257.6Zm4.176.586a2.486,2.486,0,0,1,1,.2,2.249,2.249,0,0,1,.783.564,2.647,2.647,0,0,1,.509.87,3.275,3.275,0,0,1,.181,1.119c0,.073,0,.146-.005.219s-.009.142-.016.208H38.313a1.7,1.7,0,0,0,.2.607,1.431,1.431,0,0,0,.355.413,1.4,1.4,0,0,0,.466.238,1.849,1.849,0,0,0,.536.077,2.293,2.293,0,0,0,.791-.144,2.572,2.572,0,0,0,.723-.408l.568.814a2.833,2.833,0,0,1-1.02.574,3.858,3.858,0,0,1-1.136.164,2.891,2.891,0,0,1-1.085-.2,2.453,2.453,0,0,1-.848-.558,2.524,2.524,0,0,1-.552-.871,3.11,3.11,0,0,1-.2-1.133,3.155,3.155,0,0,1,.192-1.122,2.563,2.563,0,0,1,.536-.874,2.385,2.385,0,0,1,.823-.564A2.723,2.723,0,0,1,39.731,249.029Zm-.022,1.018a1.5,1.5,0,0,0-.542.09,1.192,1.192,0,0,0-.411.266,1.405,1.405,0,0,0-.282.411,1.962,1.962,0,0,0-.154.522h2.72a1.634,1.634,0,0,0-.438-.952,1.217,1.217,0,0,0-.9-.338Zm6.08-1.018a2.845,2.845,0,0,1,1.1.21,2.211,2.211,0,0,1,.86.627l-.733.782a2.211,2.211,0,0,0-.579-.4,1.6,1.6,0,0,0-.679-.139,1.523,1.523,0,0,0-.613.123,1.469,1.469,0,0,0-.493.345,1.6,1.6,0,0,0-.325.53,2.034,2.034,0,0,0,0,1.364,1.6,1.6,0,0,0,.325.53,1.476,1.476,0,0,0,.493.345,1.531,1.531,0,0,0,.613.123,1.631,1.631,0,0,0,.706-.156,2.266,2.266,0,0,0,.58-.391l.706.788a2.323,2.323,0,0,1-.865.627,2.8,2.8,0,0,1-1.095.21,2.932,2.932,0,0,1-1.133-.21,2.532,2.532,0,0,1-1.429-1.453,3.135,3.135,0,0,1,0-2.189,2.532,2.532,0,0,1,1.429-1.453A2.928,2.928,0,0,1,45.788,249.029Zm7.825,3.158a2.524,2.524,0,0,1-.208,1.072,2.081,2.081,0,0,1-.547.733,2.194,2.194,0,0,1-.776.419,3.07,3.07,0,0,1-1.795,0,2.216,2.216,0,0,1-.78-.419,2.034,2.034,0,0,1-.547-.733,2.559,2.559,0,0,1-.205-1.072v-3.02H49.9v2.916a1.853,1.853,0,0,0,.1.643,1.128,1.128,0,0,0,.271.429,1.029,1.029,0,0,0,.408.238,1.754,1.754,0,0,0,1.007,0,1.033,1.033,0,0,0,.407-.238,1.123,1.123,0,0,0,.271-.429,1.853,1.853,0,0,0,.1-.643v-2.917h1.149v3.02Zm4.175-3.158a2.813,2.813,0,0,1,.474.035,2.056,2.056,0,0,1,.408.112l-.271,1.133a1.638,1.638,0,0,0-.421-.143,2.262,2.262,0,0,0-.452-.049,1.329,1.329,0,0,0-.5.09,1.059,1.059,0,0,0-.394.271,1.294,1.294,0,0,0-.258.443,1.783,1.783,0,0,0-.09.6V254.4H55.134v-5.243h1.133v.591a1.571,1.571,0,0,1,.651-.552,2.09,2.09,0,0,1,.868-.169Zm3.842,0a2.484,2.484,0,0,1,1,.2,2.241,2.241,0,0,1,.783.564,2.66,2.66,0,0,1,.509.87,3.287,3.287,0,0,1,.181,1.119c0,.073,0,.146,0,.219s-.009.142-.017.208H60.213a1.7,1.7,0,0,0,.2.607,1.437,1.437,0,0,0,.355.413,1.4,1.4,0,0,0,.466.238,1.863,1.863,0,0,0,.536.077,2.284,2.284,0,0,0,.791-.144,2.572,2.572,0,0,0,.723-.408l.568.814a2.833,2.833,0,0,1-1.02.574,3.858,3.858,0,0,1-1.136.164,2.9,2.9,0,0,1-1.085-.2,2.455,2.455,0,0,1-.848-.558,2.511,2.511,0,0,1-.552-.871,3.111,3.111,0,0,1-.2-1.133,3.145,3.145,0,0,1,.192-1.122,2.568,2.568,0,0,1,.536-.874,2.391,2.391,0,0,1,.824-.564A2.725,2.725,0,0,1,61.631,249.029Zm-.023,1.018a1.5,1.5,0,0,0-.542.09,1.194,1.194,0,0,0-.41.266,1.394,1.394,0,0,0-.281.411,1.949,1.949,0,0,0-.153.522h2.718a1.637,1.637,0,0,0-.439-.952,1.217,1.217,0,0,0-.892-.338Zm7.437-3.443a4.364,4.364,0,0,1,.986.11,3.873,3.873,0,0,1,.887.317,3.437,3.437,0,0,1,.744.506,2.9,2.9,0,0,1,.558.67l-1.035.689a2.509,2.509,0,0,0-.9-.813,2.584,2.584,0,0,0-1.239-.295,2.86,2.86,0,0,0-1.085.2,2.532,2.532,0,0,0-.86.57,2.617,2.617,0,0,0-.566.881,3.224,3.224,0,0,0,0,2.266,2.613,2.613,0,0,0,.566.881,2.518,2.518,0,0,0,.86.569,2.843,2.843,0,0,0,1.085.2,2.513,2.513,0,0,0,2.134-1.1l1.007.739a3.317,3.317,0,0,1-.578.645,3.6,3.6,0,0,1-.734.487,3.854,3.854,0,0,1-.864.309,4.494,4.494,0,0,1-2.586-.192,3.7,3.7,0,0,1-2.1-2.087,4.409,4.409,0,0,1,0-3.174,3.7,3.7,0,0,1,2.1-2.087,4.275,4.275,0,0,1,1.625-.295Zm6.758,2.425a2.948,2.948,0,0,1,1.124.21,2.746,2.746,0,0,1,.9.58,2.654,2.654,0,0,1,.592.872,2.919,2.919,0,0,1,0,2.189,2.657,2.657,0,0,1-.592.873,2.749,2.749,0,0,1-.9.579,3.108,3.108,0,0,1-2.249,0,2.715,2.715,0,0,1-.891-.579,2.679,2.679,0,0,1-.588-.873,2.919,2.919,0,0,1,0-2.189,2.679,2.679,0,0,1,.588-.872,2.716,2.716,0,0,1,.891-.58,2.946,2.946,0,0,1,1.126-.21Zm0,1.078a1.709,1.709,0,0,0-.652.123,1.536,1.536,0,0,0-.52.345,1.6,1.6,0,0,0-.345.53,1.907,1.907,0,0,0,0,1.364,1.6,1.6,0,0,0,.345.53,1.549,1.549,0,0,0,.52.345,1.786,1.786,0,0,0,1.3,0,1.56,1.56,0,0,0,.871-.875,1.912,1.912,0,0,0,0-1.364,1.6,1.6,0,0,0-.348-.53,1.576,1.576,0,0,0-.522-.345,1.7,1.7,0,0,0-.65-.124Zm6.266-1.078a1.983,1.983,0,0,1,1.647.772v-3.273H84.86v7.88H83.718v-.633a2.024,2.024,0,0,1-.679.558,2.089,2.089,0,0,1-.968.208,2.557,2.557,0,0,1-1.861-.777,2.638,2.638,0,0,1-.558-.872,3.135,3.135,0,0,1,0-2.216,2.647,2.647,0,0,1,.558-.873,2.557,2.557,0,0,1,1.861-.776Zm.137,1.078a1.6,1.6,0,0,0-.666.134,1.5,1.5,0,0,0-.5.362,1.6,1.6,0,0,0-.312.533,1.99,1.99,0,0,0,0,1.3,1.6,1.6,0,0,0,.312.533,1.5,1.5,0,0,0,.5.362,1.7,1.7,0,0,0,1.311,0,1.491,1.491,0,0,0,.5-.353,1.581,1.581,0,0,0,.323-.531,1.989,1.989,0,0,0,0-1.335,1.6,1.6,0,0,0-.323-.531,1.5,1.5,0,0,0-.5-.353,1.586,1.586,0,0,0-.645-.129Zm6.463-1.078a2.48,2.48,0,0,1,1,.2,2.24,2.24,0,0,1,.783.564,2.632,2.632,0,0,1,.509.87,3.264,3.264,0,0,1,.181,1.119c0,.073,0,.146-.005.219s-.009.142-.016.208H87.252a1.685,1.685,0,0,0,.2.607,1.424,1.424,0,0,0,.355.413,1.4,1.4,0,0,0,.465.238,1.863,1.863,0,0,0,.536.077,2.285,2.285,0,0,0,.791-.144,2.563,2.563,0,0,0,.723-.408l.569.814a2.842,2.842,0,0,1-1.021.574,3.855,3.855,0,0,1-1.135.164,2.9,2.9,0,0,1-1.085-.2,2.455,2.455,0,0,1-.848-.558,2.524,2.524,0,0,1-.552-.871,3.12,3.12,0,0,1-.2-1.133,3.163,3.163,0,0,1,.192-1.122,2.577,2.577,0,0,1,.536-.874,2.391,2.391,0,0,1,.824-.564,2.728,2.728,0,0,1,1.063-.2Zm3.025,5.379v-.263H91.8v-.054h-.271v.054h.106v.263Zm.526,0v-.318h-.08l-.1.219-.1-.219h-.083v.318h.059v-.239l.09.207h.062l.09-.207v.24h.054Zm-3.573-4.361a1.5,1.5,0,0,0-.542.09,1.2,1.2,0,0,0-.411.266,1.4,1.4,0,0,0-.281.411,1.931,1.931,0,0,0-.154.522h2.72a1.634,1.634,0,0,0-.438-.952,1.218,1.218,0,0,0-.894-.338Z" transform="translate(-30.124 -235.424)" fill="#9597a6"/>
      <path id="Path_14" data-name="Path 14" d="M40.113,229.792H38.831v-6.539l-2.322,5.761H35.158l-2.321-5.7v6.477H31.554v-7.947h1.97l2.314,5.677,2.306-5.677h1.97Zm6.754,0H45.682v-.653a2.1,2.1,0,0,1-.7.579,2.167,2.167,0,0,1-1,.218,2.65,2.65,0,0,1-1.93-.806,2.743,2.743,0,0,1-.579-.9,3.252,3.252,0,0,1,0-2.3,2.748,2.748,0,0,1,.579-.9,2.65,2.65,0,0,1,1.93-.81,2.154,2.154,0,0,1,1,.219,2.126,2.126,0,0,1,.7.581v-.658h1.185Zm-2.753-4.461a1.638,1.638,0,0,0-.69.139,1.541,1.541,0,0,0-.514.374,1.651,1.651,0,0,0-.324.553,2.063,2.063,0,0,0,0,1.351,1.644,1.644,0,0,0,.324.553,1.532,1.532,0,0,0,.514.375,1.765,1.765,0,0,0,1.356.005,1.556,1.556,0,0,0,.516-.366,1.658,1.658,0,0,0,.335-.551,2.074,2.074,0,0,0,0-1.385,1.656,1.656,0,0,0-.335-.55,1.565,1.565,0,0,0-.516-.362A1.64,1.64,0,0,0,44.115,225.33Zm8.2.386a3.3,3.3,0,0,0-.306-.156,3.509,3.509,0,0,0-.4-.15,4.233,4.233,0,0,0-.468-.114,2.8,2.8,0,0,0-.5-.045,1.363,1.363,0,0,0-.758.181.543.543,0,0,0-.271.468.394.394,0,0,0,.073.239.55.55,0,0,0,.19.159,1.186,1.186,0,0,0,.284.1q.164.037.352.065l.561.085a2.924,2.924,0,0,1,1.391.519,1.3,1.3,0,0,1,.5,1.085,1.545,1.545,0,0,1-.167.718,1.621,1.621,0,0,1-.483.562,2.354,2.354,0,0,1-.777.366,3.889,3.889,0,0,1-1.046.131q-.209,0-.488-.025a4.079,4.079,0,0,1-.59-.1,4.337,4.337,0,0,1-.633-.214,2.911,2.911,0,0,1-.618-.362l.551-.891a2.857,2.857,0,0,0,.321.213,2.3,2.3,0,0,0,.391.176,2.967,2.967,0,0,0,.479.127,3.554,3.554,0,0,0,.6.045,1.9,1.9,0,0,0,.924-.181.543.543,0,0,0,.312-.485.452.452,0,0,0-.227-.383,1.788,1.788,0,0,0-.715-.218l-.568-.074a2.611,2.611,0,0,1-1.377-.531,1.339,1.339,0,0,1-.468-1.066,1.641,1.641,0,0,1,.156-.723,1.5,1.5,0,0,1,.452-.548,2.142,2.142,0,0,1,.707-.346,3.305,3.305,0,0,1,.937-.122,4.7,4.7,0,0,1,1.21.15,3.469,3.469,0,0,1,.994.423Zm5.631-.284H55.867V227.8a1.409,1.409,0,0,0,.068.465.869.869,0,0,0,.181.316.7.7,0,0,0,.271.181.982.982,0,0,0,.338.057,1.58,1.58,0,0,0,.565-.107,2.964,2.964,0,0,0,.531-.261l.472.943a3.726,3.726,0,0,1-.74.381,2.555,2.555,0,0,1-.928.159,1.944,1.944,0,0,1-1.44-.513,2.177,2.177,0,0,1-.514-1.6v-2.389H53.586v-1.079h1.085v-1.645h1.191v1.645h2.079Zm3.649-1.22a2.58,2.58,0,0,1,1.042.207,2.335,2.335,0,0,1,.813.585,2.733,2.733,0,0,1,.528.9,3.384,3.384,0,0,1,.19,1.161c0,.076,0,.152-.005.227s-.01.147-.017.215H60.127a1.76,1.76,0,0,0,.21.633,1.488,1.488,0,0,0,.369.429,1.457,1.457,0,0,0,.483.246,1.938,1.938,0,0,0,.556.08,2.372,2.372,0,0,0,.82-.15,2.643,2.643,0,0,0,.752-.423l.59.845a2.954,2.954,0,0,1-1.059.6,4.034,4.034,0,0,1-1.175.171,3.008,3.008,0,0,1-1.124-.2,2.553,2.553,0,0,1-.88-.579,2.621,2.621,0,0,1-.573-.9,3.234,3.234,0,0,1-.2-1.175,3.286,3.286,0,0,1,.2-1.163,2.662,2.662,0,0,1,.556-.9,2.476,2.476,0,0,1,.854-.585,2.825,2.825,0,0,1,1.1-.211Zm-.022,1.056a1.537,1.537,0,0,0-.565.1,1.22,1.22,0,0,0-.426.271,1.448,1.448,0,0,0-.293.426,2.023,2.023,0,0,0-.159.542h2.821a1.694,1.694,0,0,0-.452-.987,1.264,1.264,0,0,0-.925-.349Zm6.7-1.056a2.972,2.972,0,0,1,.491.037,2.147,2.147,0,0,1,.423.116l-.284,1.175a1.689,1.689,0,0,0-.438-.147,2.327,2.327,0,0,0-.464-.051,1.378,1.378,0,0,0-.522.1,1.1,1.1,0,0,0-.409.284,1.347,1.347,0,0,0-.271.46,1.856,1.856,0,0,0-.1.618v2.991H65.525v-5.438H66.7v.609a1.64,1.64,0,0,1,.675-.573,2.173,2.173,0,0,1,.9-.178Zm4.059,0a2.943,2.943,0,0,1,1.141.219,2.292,2.292,0,0,1,.892.65l-.76.813a2.287,2.287,0,0,0-.6-.418,1.66,1.66,0,0,0-.7-.144,1.583,1.583,0,0,0-.633.127,1.511,1.511,0,0,0-.511.361,1.658,1.658,0,0,0-.337.551,2.109,2.109,0,0,0,0,1.414,1.673,1.673,0,0,0,.337.55,1.511,1.511,0,0,0,.511.361,1.568,1.568,0,0,0,.633.128,1.683,1.683,0,0,0,.732-.162,2.333,2.333,0,0,0,.6-.406l.732.813a2.393,2.393,0,0,1-.9.65,2.917,2.917,0,0,1-1.135.219,3.033,3.033,0,0,1-1.175-.219,2.621,2.621,0,0,1-1.482-1.507,3.259,3.259,0,0,1,0-2.271,2.621,2.621,0,0,1,1.482-1.507,3.044,3.044,0,0,1,1.174-.224Zm8.356,5.58H79.5v-.653a2.1,2.1,0,0,1-.7.579,2.172,2.172,0,0,1-1.005.216,2.652,2.652,0,0,1-1.931-.806,2.743,2.743,0,0,1-.579-.9,3.235,3.235,0,0,1,0-2.3,2.75,2.75,0,0,1,.579-.9,2.652,2.652,0,0,1,1.931-.806,2.15,2.15,0,0,1,1.005.219,2.126,2.126,0,0,1,.7.581v-.659h1.186Zm-2.753-4.461a1.638,1.638,0,0,0-.69.139,1.536,1.536,0,0,0-.514.374,1.672,1.672,0,0,0-.324.553,2.069,2.069,0,0,0,0,1.351,1.664,1.664,0,0,0,.324.553,1.532,1.532,0,0,0,.514.375,1.767,1.767,0,0,0,1.356.005,1.556,1.556,0,0,0,.516-.366,1.656,1.656,0,0,0,.334-.551,2.069,2.069,0,0,0,0-1.385,1.662,1.662,0,0,0-.334-.55,1.565,1.565,0,0,0-.516-.362A1.64,1.64,0,0,0,77.939,225.33Zm7.254-1.118a2.963,2.963,0,0,1,.491.037,2.13,2.13,0,0,1,.423.116l-.284,1.175a1.674,1.674,0,0,0-.436-.147,2.34,2.34,0,0,0-.466-.051,1.374,1.374,0,0,0-.522.1,1.1,1.1,0,0,0-.409.284,1.339,1.339,0,0,0-.271.46,1.846,1.846,0,0,0-.1.618v2.991H82.44v-5.438h1.175v.609a1.634,1.634,0,0,1,.675-.573A2.17,2.17,0,0,1,85.193,224.212Zm3.894,0a2.151,2.151,0,0,1,1,.219,2.122,2.122,0,0,1,.7.581v-3.394h1.185v8.174H90.795v-.653a2.1,2.1,0,0,1-.7.579,2.166,2.166,0,0,1-1.005.218,2.651,2.651,0,0,1-1.93-.806,2.753,2.753,0,0,1-.579-.9,3.252,3.252,0,0,1,0-2.3,2.753,2.753,0,0,1,.579-.9A2.65,2.65,0,0,1,89.086,224.212Zm4.28,5.077a.344.344,0,0,1,.137.027.354.354,0,0,1,.112.074.342.342,0,0,1,.075.11.343.343,0,0,1-.075.381.37.37,0,0,1-.112.074.343.343,0,0,1-.137.028.364.364,0,0,1-.251-.1.369.369,0,0,1-.075-.109.345.345,0,0,1,0-.268.354.354,0,0,1,.075-.111.375.375,0,0,1,.252-.1Zm0,.616a.26.26,0,0,0,.105-.021.279.279,0,0,0,.084-.058.27.27,0,0,0-.084-.439.259.259,0,0,0-.105-.021.277.277,0,0,0-.106.021.26.26,0,0,0-.09.057.271.271,0,0,0,.192.46Zm.021-.431a.146.146,0,0,1,.1.027.091.091,0,0,1,.033.074.09.09,0,0,1-.027.066.126.126,0,0,1-.076.032l.1.121h-.082l-.1-.119H93.3v.12h-.069v-.321h.151Zm-.079.061v.085h.078a.074.074,0,0,0,.043-.011.039.039,0,0,0,0-.064.078.078,0,0,0-.043-.011Zm-4.079-4.2a1.639,1.639,0,0,0-.69.139,1.545,1.545,0,0,0-.514.374,1.671,1.671,0,0,0-.324.553,2.069,2.069,0,0,0,0,1.351,1.663,1.663,0,0,0,.324.553,1.537,1.537,0,0,0,.514.375,1.767,1.767,0,0,0,1.356.005,1.558,1.558,0,0,0,.516-.366,1.657,1.657,0,0,0,.335-.551,2.063,2.063,0,0,0,0-1.385,1.655,1.655,0,0,0-.335-.55,1.565,1.565,0,0,0-.516-.362A1.638,1.638,0,0,0,89.228,225.33Z" transform="translate(-30.917 -221.618)" fill="#9597a6"/>
    </g>
  </g>
  <rect id="Rectangle_235" data-name="Rectangle 235" width="75" height="43" fill="none"/>
</svg>
