<svg xmlns="http://www.w3.org/2000/svg" width="75" height="43" viewBox="0 0 75 43">
  <g id="Group_652" data-name="Group 652" transform="translate(-920 -965)">
    <rect id="Rectangle_233" data-name="Rectangle 233" width="75" height="43" transform="translate(920 965)" fill="none"/>
    <g id="pci_dss" transform="translate(902.9 341.433)">
      <path id="Subtraction_8" data-name="Subtraction 8" d="M7.008,20.214c-.067,0-.111-.041-.145-.131-.462-1.264-.938-2.556-1.4-3.8l-.02-.055c-.2-.554-.442-1.2-.677-1.836l.065-.005c.092-.007.172-.014.25-.014H6.334c.5,0,.879,0,1.237.012a.314.314,0,0,0,.235-.064.3.3,0,0,0,.052-.233c0-.261,0-.526,0-.782v-.011c0-.342,0-.7-.008-1.044A.314.314,0,0,1,7.906,12c.046-.048.121-.067.259-.067l.248,0a6.82,6.82,0,0,0,2.356-.367,2.773,2.773,0,0,0,1.79-1.579,2.438,2.438,0,0,0-1.292-3.235,5.592,5.592,0,0,0-2.288-.507c-.745-.016-1.5-.017-2.236-.018-.585,0-1.189,0-1.785-.01a.246.246,0,0,0-.182.055.3.3,0,0,0-.048.219v.01c0,.011,0,.021,0,.032V14.11h0a.111.111,0,0,0-.031.006h0l-.016,0C2.965,9.476,1.434,5.314,0,1.4c.29-.016.574-.035.849-.053.221-.015.449-.03.673-.043C3.74,1.181,5.983,1.056,8.154.934H8.18c2.114-.118,4.3-.24,6.446-.358L20.549.238h.012L24.725,0h.025c.173,0,.227.1.281.221l.1.225c1.059,2.361,2.154,4.8,3.251,7.239-.529.7-1.167,1.568-1.9,2.587-.239.333-.484.676-.728,1.02V6.529c0-.325,0-.325-.335-.325l-.844,0h0l-.845,0c-.316,0-.592,0-.845,0-.22,0-.287.067-.287.287.008,2.185.01,4.4,0,6.57a2.911,2.911,0,0,0-.98-.587,1.125,1.125,0,0,0-.249-.052v-.2a.451.451,0,0,0-.015-.1h0c0-.02-.01-.044-.014-.072-.152.04-.3.083-.443.125-.274.079-.533.154-.8.21a5.01,5.01,0,0,1-.961.1,3.229,3.229,0,0,1-1.221-.226,2.1,2.1,0,0,1-1.049-.855,2.16,2.16,0,0,1-.281-1.337A2.19,2.19,0,0,1,17.1,8.782a2.057,2.057,0,0,1,1.2-.635,3.843,3.843,0,0,1,.682-.061,4.46,4.46,0,0,1,1.884.444,3,3,0,0,1,.306.124l0-.03,0-.038c.007-.083.013-.148.013-.209,0-.133,0-.266,0-.415,0-.408,0-.83.011-1.241a.3.3,0,0,0-.259-.354,6.437,6.437,0,0,0-2.118-.307c-.216,0-.45.006-.716.02a5.927,5.927,0,0,0-2.585.68A3.82,3.82,0,0,0,13.3,10.415a3.664,3.664,0,0,0,2.489,3.532,7.623,7.623,0,0,0,2.878.555c.214,0,.433-.008.652-.025a1.8,1.8,0,0,0,.021.2l.029.192.115.153c.291.374.562.721.8,1.03L16.618,17.2l-.275.087-.247.078L7.16,20.179l-.019.006-.006,0A.447.447,0,0,1,7.008,20.214ZM24.17,1.877a1.751,1.751,0,0,0-1.9,1.79,1.753,1.753,0,0,0,1.9,1.781h.022a1.948,1.948,0,0,0,1.369-.494,1.716,1.716,0,0,0,.524-1.286A1.751,1.751,0,0,0,24.17,1.877ZM21.078,15.8h0c-.533-.674-.982-1.253-.986-1.258a.985.985,0,0,1-.012-.154,11.085,11.085,0,0,0,1.113-.238c.159-.04.192-.132.192-.268,0-.2-.006-.425-.008-.682h.008a4.51,4.51,0,0,1,1.216.853c0,.006,0,.012,0,.019v.009s0,.006,0,.009c0,.21.065.278.268.278h.091c.214.191.45.407.682.625l-1.611.507-.952.3Zm3.154-.993h0l.3-.432c.31.005.627.013.941.023l-.075.033h0l-.077.034-.543.171-.543.171Zm1.527-.5h0v-1.7c1.164-1.656,2.167-3.047,2.983-4.134l.291.645.081.18.111.248.353.787c-.78,1.092-1.531,2.26-2.231,3.474l-1.587.5Zm2.681-.843h0c.482-.8.987-1.577,1.5-2.316.2.434.386.857.583,1.293.011.028.021.055.031.082a2.2,2.2,0,0,0,.1.244l-2.22.7Z" transform="translate(28.1 634.567)" fill="#9597a6"/>
      <path id="Path_260" data-name="Path 260" d="M226.131,331.009c-.067,0-.134.01-.2.01-.153.019-.23-.038-.23-.211.01-.565,0-1.139,0-1.7,0-.124.019-.22.172-.211a8.3,8.3,0,0,1,1.091.144.811.811,0,0,1,.622.842.866.866,0,0,1-.555.948,7.107,7.107,0,0,1-.89.22A.058.058,0,0,1,226.131,331.009Z" transform="translate(-189.78 313.607)" fill="#9597a6"/>
      <g id="Group_642" data-name="Group 642" transform="translate(62.913 637.276)">
        <path id="Path_261" data-name="Path 261" d="M507.7,276.4h2.8a3.408,3.408,0,0,1,1.331.22,2.248,2.248,0,0,1,.842.641,2.59,2.59,0,0,1,.479.976,4.723,4.723,0,0,1,.153,1.177,4.172,4.172,0,0,1-.22,1.512,2.5,2.5,0,0,1-.613.9,2.108,2.108,0,0,1-.842.488,4.162,4.162,0,0,1-1.12.163h-2.8V276.4Zm1.876,1.378V281.1h.459a1.984,1.984,0,0,0,.842-.134.9.9,0,0,0,.392-.459,2.806,2.806,0,0,0,.144-1.053,2.048,2.048,0,0,0-.316-1.321,1.322,1.322,0,0,0-1.043-.354Z" transform="translate(-507.7 -276.285)" fill="#9597a6"/>
        <path id="Path_262" data-name="Path 262" d="M573.1,279.393l1.79-.115a1.309,1.309,0,0,0,.239.66.987.987,0,0,0,.833.373.93.93,0,0,0,.622-.191.567.567,0,0,0,.22-.44.548.548,0,0,0-.211-.421,2.437,2.437,0,0,0-.967-.354,4.019,4.019,0,0,1-1.761-.737,1.49,1.49,0,0,1-.536-1.177,1.591,1.591,0,0,1,.268-.89,1.83,1.83,0,0,1,.814-.66,3.74,3.74,0,0,1,1.493-.239,3.1,3.1,0,0,1,1.78.431,1.849,1.849,0,0,1,.727,1.378l-1.771.105a.924.924,0,0,0-.3-.593.965.965,0,0,0-.622-.191.753.753,0,0,0-.5.144.407.407,0,0,0-.163.335.346.346,0,0,0,.134.258,1.549,1.549,0,0,0,.632.22,8.328,8.328,0,0,1,1.771.536,1.868,1.868,0,0,1,.775.67,1.688,1.688,0,0,1,.239.9,1.913,1.913,0,0,1-.326,1.082,2.068,2.068,0,0,1-.909.747,3.616,3.616,0,0,1-1.464.258,3.067,3.067,0,0,1-2.154-.593A2.277,2.277,0,0,1,573.1,279.393Z" transform="translate(-566.84 -275.2)" fill="#9597a6"/>
        <path id="Path_263" data-name="Path 263" d="M637.2,279.393l1.79-.115a1.31,1.31,0,0,0,.239.66.987.987,0,0,0,.833.373.93.93,0,0,0,.622-.191.567.567,0,0,0,.22-.44.548.548,0,0,0-.211-.421,2.437,2.437,0,0,0-.967-.354,4.02,4.02,0,0,1-1.761-.737,1.491,1.491,0,0,1-.536-1.177,1.59,1.59,0,0,1,.268-.89,1.83,1.83,0,0,1,.814-.66A3.741,3.741,0,0,1,640,275.2a3.1,3.1,0,0,1,1.78.431,1.849,1.849,0,0,1,.728,1.378l-1.771.105a.924.924,0,0,0-.3-.593.965.965,0,0,0-.622-.191.753.753,0,0,0-.5.144.407.407,0,0,0-.163.335.346.346,0,0,0,.134.258,1.549,1.549,0,0,0,.632.22,8.33,8.33,0,0,1,1.771.536,1.867,1.867,0,0,1,.775.67,1.688,1.688,0,0,1,.239.9,1.913,1.913,0,0,1-.326,1.082,2.068,2.068,0,0,1-.909.747,3.616,3.616,0,0,1-1.465.258,3.067,3.067,0,0,1-2.154-.593A2.277,2.277,0,0,1,637.2,279.393Z" transform="translate(-624.804 -275.2)" fill="#9597a6"/>
      </g>
      <g id="Group_643" data-name="Group 643" transform="translate(62.77 644.892)">
        <path id="Path_264" data-name="Path 264" d="M507.492,354.52l.5.153a.932.932,0,0,1-.163.354.709.709,0,0,1-.268.211.986.986,0,0,1-.412.077,1.174,1.174,0,0,1-.488-.086.763.763,0,0,1-.325-.306,1.1,1.1,0,0,1-.134-.565.974.974,0,0,1,1.484-.814.851.851,0,0,1,.3.431l-.507.115a.513.513,0,0,0-.057-.124.3.3,0,0,0-.115-.105.281.281,0,0,0-.153-.038.322.322,0,0,0-.3.153.71.71,0,0,0-.077.364.665.665,0,0,0,.1.421.315.315,0,0,0,.258.115.311.311,0,0,0,.249-.1A.541.541,0,0,0,507.492,354.52Z" transform="translate(-506.2 -353.39)" fill="#9597a6"/>
        <path id="Path_265" data-name="Path 265" d="M528.2,354.257a.982.982,0,0,1,.249-.708.934.934,0,0,1,.7-.249.966.966,0,0,1,.708.249.943.943,0,0,1,.249.7,1.242,1.242,0,0,1-.105.536.859.859,0,0,1-.316.325,1.033,1.033,0,0,1-.517.115,1.159,1.159,0,0,1-.517-.1.814.814,0,0,1-.335-.316A1.085,1.085,0,0,1,528.2,354.257Zm.574.01a.614.614,0,0,0,.105.4.394.394,0,0,0,.574,0,.671.671,0,0,0,.105-.431.609.609,0,0,0-.105-.383.367.367,0,0,0-.287-.124.333.333,0,0,0-.278.124A.559.559,0,0,0,528.774,354.267Z" transform="translate(-526.094 -353.3)" fill="#9597a6"/>
        <path id="Path_266" data-name="Path 266" d="M552.41,353.7h.756l.287,1.13.287-1.13h.747v1.847h-.469V354.14l-.364,1.407h-.421l-.364-1.407v1.407H552.4l.01-1.847Z" transform="translate(-547.978 -353.662)" fill="#9597a6"/>
        <path id="Path_267" data-name="Path 267" d="M579.01,353.7h.948a.671.671,0,0,1,.469.144.543.543,0,0,1,.153.421.563.563,0,0,1-.172.44.742.742,0,0,1-.517.153h-.316v.689H579l.01-1.847Zm.574.785h.144a.332.332,0,0,0,.23-.057.172.172,0,0,0,.067-.144.2.2,0,0,0-.057-.144.32.32,0,0,0-.22-.057h-.163v.4Z" transform="translate(-572.031 -353.662)" fill="#9597a6"/>
        <path id="Path_268" data-name="Path 268" d="M599.7,353.7h.574v1.4h.89v.459H599.7Z" transform="translate(-590.75 -353.662)" fill="#9597a6"/>
        <path id="Path_269" data-name="Path 269" d="M619,353.7h.574v1.847H619Z" transform="translate(-608.203 -353.662)" fill="#9597a6"/>
        <path id="Path_270" data-name="Path 270" d="M629.721,355.241h-.651l-.086.306H628.4l.7-1.847h.622l.7,1.847h-.6Zm-.115-.4-.2-.66-.2.66Z" transform="translate(-616.703 -353.662)" fill="#9597a6"/>
        <path id="Path_271" data-name="Path 271" d="M652.5,353.7h.536l.7,1.024V353.7h.536v1.847h-.536l-.689-1.015v1.015h-.536l-.01-1.847Z" transform="translate(-638.496 -353.662)" fill="#9597a6"/>
        <path id="Path_272" data-name="Path 272" d="M674.6,353.7h1.742v.459h-.584v1.4h-.574v-1.4H674.6V353.7Z" transform="translate(-658.48 -353.662)" fill="#9597a6"/>
      </g>
      <path id="Path_273" data-name="Path 273" d="M354.031,310.573a3.085,3.085,0,0,1-1.388-.306,34.939,34.939,0,0,1-2.833-3.446l-.057-.077-.019-.1a1.469,1.469,0,0,1,.354-1.187,1.7,1.7,0,0,1,1.177-.622.734.734,0,0,1,.258.038,10.372,10.372,0,0,1,2.355,1.838c.507-.737,1.694-2.45,2.939-4.183,3.36-4.681,3.81-4.882,4.011-4.968A7.021,7.021,0,0,1,363.4,297a1.921,1.921,0,0,1,.239.01.431.431,0,0,1,.383.268c.124.306-.067.507-.756,1.244a40.913,40.913,0,0,0-7.495,11.228l-.019.038-.029.038A2.018,2.018,0,0,1,354.031,310.573Z" transform="translate(-301.924 342.546)" fill="#9597a6"/>
    </g>
  </g>
</svg>
